<svg width="1920" height="1080" viewBox="0 0 1920 1080" fill="none" xmlns="http://www.w3.org/2000/svg">
<mask id="mask0_2_422" style="mask-type:luminance" maskUnits="userSpaceOnUse" x="0" y="0" width="1920" height="1080">
<path d="M1920 0H0V1080H1920V0Z" fill="white"/>
</mask>
<g mask="url(#mask0_2_422)">
<path d="M1920 0H0V1080H1920V0Z" fill="#F7B500"/>
<path d="M2031 658.688C2031 929.699 1666.22 904.897 1503.5 1138.5C1284.82 1452.45 1325.47 1823.62 994 1823.62C421.281 1823.62 -43 1302.06 -43 658.688C-43 15.3102 421.281 -506.25 994 -506.25C1566.72 -506.25 2031 15.3102 2031 658.688Z" fill="#1681F5"/>
<path d="M2074 185.062C2074 456.074 1709.22 431.272 1546.5 664.875C1327.82 978.824 1368.47 1350 1037 1350C464.281 1350 0 828.44 0 185.062C0 -458.315 464.281 -979.875 1037 -979.875C1609.72 -979.875 2074 -458.315 2074 185.062Z" fill="#0366D0"/>
<path d="M1533 92.8125C1533 381.633 1124 437.625 991 838.125C893.389 1132.06 648.979 1199.25 353 1199.25C-199.837 1199.25 -469 714.444 -469 92.8125C-469 -528.819 -20.837 -1032.75 532 -1032.75C1084.84 -1032.75 1533 -528.819 1533 92.8125Z" fill="#0E3C6E"/>
<path d="M461.189 -348.017C511.426 -137.095 222.401 -6.14459 194.909 315.621C174.733 551.772 7.88501 654.657 -208.321 719.831C-612.155 841.564 -893.098 546.786 -1001.22 92.8167C-1109.35 -361.152 -869.628 -827.85 -465.794 -949.583C-61.9603 -1071.32 353.064 -801.986 461.189 -348.017Z" fill="#15375C"/>
</g>
</svg>
