<svg width="15" height="12" viewBox="0 0 15 12" fill="none" xmlns="http://www.w3.org/2000/svg">
<path d="M13.75 0H1.25C0.559896 0 0 0.559896 0 1.25V10.4167C0 11.1068 0.559896 11.6667 1.25 11.6667H13.75C14.4401 11.6667 15 11.1068 15 10.4167V1.25C15 0.559896 14.4401 0 13.75 0ZM4.58333 2.5C5.5026 2.5 6.25 3.2474 6.25 4.16667C6.25 5.08594 5.5026 5.83333 4.58333 5.83333C3.66406 5.83333 2.91667 5.08594 2.91667 4.16667C2.91667 3.2474 3.66406 2.5 4.58333 2.5ZM7.5 8.66667C7.5 8.94271 7.23958 9.16667 6.91667 9.16667H2.25C1.92708 9.16667 1.66667 8.94271 1.66667 8.66667V8.16667C1.66667 7.33854 2.45052 6.66667 3.41667 6.66667H3.54687C3.86719 6.79948 4.21615 6.875 4.58333 6.875C4.95052 6.875 5.30208 6.79948 5.61979 6.66667H5.75C6.71615 6.66667 7.5 7.33854 7.5 8.16667V8.66667ZM13.3333 7.29167C13.3333 7.40625 13.2396 7.5 13.125 7.5H9.375C9.26042 7.5 9.16667 7.40625 9.16667 7.29167V6.875C9.16667 6.76042 9.26042 6.66667 9.375 6.66667H13.125C13.2396 6.66667 13.3333 6.76042 13.3333 6.875V7.29167ZM13.3333 5.625C13.3333 5.73958 13.2396 5.83333 13.125 5.83333H9.375C9.26042 5.83333 9.16667 5.73958 9.16667 5.625V5.20833C9.16667 5.09375 9.26042 5 9.375 5H13.125C13.2396 5 13.3333 5.09375 13.3333 5.20833V5.625ZM13.3333 3.95833C13.3333 4.07292 13.2396 4.16667 13.125 4.16667H9.375C9.26042 4.16667 9.16667 4.07292 9.16667 3.95833V3.54167C9.16667 3.42708 9.26042 3.33333 9.375 3.33333H13.125C13.2396 3.33333 13.3333 3.42708 13.3333 3.54167V3.95833Z" fill="#F7B500"/>
</svg>
