<svg width="40" height="28" viewBox="0 0 40 28" fill="none" xmlns="http://www.w3.org/2000/svg">
<path d="M9 8C9 9.65396 7.65397 11 6 11C4.34603 11 3 9.65396 3 8C3 6.34603 4.34603 5 6 5C7.65397 5 9 6.34603 9 8ZM37 8C37 9.65396 35.654 11 34 11C32.346 11 31 9.65396 31 8C31 6.34603 32.346 5 34 5C35.654 5 37 6.34603 37 8ZM34.7142 21C34.1936 18.6368 32.8565 16.5961 31.0087 15.1676C31.319 15.0589 31.6523 15 32 15H36C37.654 15 39 16.346 39 18V20C39 20.554 38.554 21 38 21H34.7142ZM26 7C26 10.3165 23.3165 13 20 13C16.6835 13 14 10.3165 14 7C14 3.68353 16.6835 1 20 1C23.3165 1 26 3.68353 26 7ZM20 18C21.6193 18 23.1374 17.6241 24.5039 17H24.8C28.2227 17 31 19.7773 31 23.2V25C31 26.104 30.104 27 29 27H11C9.89604 27 9 26.104 9 25V23.2C9 19.7773 11.7773 17 15.2 17H15.497C16.8669 17.6234 18.3793 18 20 18ZM8 15C8.34768 15 8.68102 15.0589 8.99125 15.1676C7.14301 16.5963 5.80545 18.6372 5.28113 21H2C1.44603 21 1 20.554 1 20V18C1 16.346 2.34603 15 4 15H8Z" stroke="white" stroke-width="2"/>
</svg>
