<svg width="40" height="32" viewBox="0 0 40 32" fill="none" xmlns="http://www.w3.org/2000/svg">
<path d="M34 13V14H35H39V16H35H34V17V21H32V17V16H31H27V14H31H32V13V9H34V13ZM21 8C21 11.8665 17.8665 15 14 15C10.1335 15 7 11.8665 7 8C7 4.13353 10.1335 1 14 1C17.8665 1 21 4.13353 21 8ZM14 20C15.6958 20 17.3101 19.6384 18.77 19H19.6C23.6852 19 27 22.3148 27 26.4V29C27 30.104 26.104 31 25 31H3C1.89603 31 1 30.104 1 29V26.4C1 22.3148 4.31478 19 8.4 19H9.23071C10.6944 19.6379 12.3029 20 14 20Z" stroke="white" stroke-width="2"/>
</svg>
